# xmcd
#
# Track frame offsets:
#       150
#       17712
#       40782
#       71342
#       90277
#       128457
#       150837
#       170072
#       191112
#
# Disc length: 2879 seconds
#
# Revision: 0
# Processed by: cddbd v1.4PL0 Copyright (c) Steve Scherf et al.
# Submitted via: CD-DA_X-Tractor v0.21
#
DISCID=610b3d09
DTITLE=Sir Oliver's Blues Distillery - Rough Brand
DYEAR=1900
DGENRE=
TTITLE0=Honey Hush
TTITLE1=Mannish Boy
TTITLE2=Leave My Girl Alone
TTITLE3=You Can't Judge A Book By Looking At The Cover
TTITLE4=Red House
TTITLE5=All Your Lovin'
TTITLE6=When You Broke Your Promise
TTITLE7=She's Out There Somewhere
TTITLE8=Cold, Cold Feeling
EXTD=
EXTT0=
EXTT1=
EXTT2=
EXTT3=
EXTT4=
EXTT5=
EXTT6=
EXTT7=
EXTT8=
PLAYORDER=
